# xmcd
#
# Track frame offsets: 
#        150
#        24282
#        43195
#        63448
#        83739
#        106410
#        129472
#        144575
#        163009
#        180685
#        200543
#
# Disc length: 2877 seconds
#
# Revision: 0
# Processed by: cddbd v1.5.2PL0 Copyright (c) Steve Scherf et al.
# Submitted via: ExactAudioCopy v0.99pb5
#
DISCID=940b3b0b
DTITLE=Gugun And The Bluesbug - Get The Bug
DYEAR=2005
DGENRE=Blues
TTITLE0=$20
TTITLE1=Move On
TTITLE2=Take It Slow Make It Shine
TTITLE3=Talk Too Much
TTITLE4=On The Run
TTITLE5=Plastic People
TTITLE6=Orangatanagram
TTITLE7=Ask Your Soul
TTITLE8=Trouble Down
TTITLE9=Night Flying
TTITLE10=Last Order
EXTD=
EXTT0=
EXTT1=
EXTT2=
EXTT3=
EXTT4=
EXTT5=
EXTT6=
EXTT7=
EXTT8=
EXTT9=
EXTT10=
PLAYORDER=
